<svg xmlns="http://www.w3.org/2000/svg" width="150" height="150" fill="none" viewBox="0 0 150 150"><rect width="23" height="23" x="9" y="26" fill="#898879" rx="2"/><rect width="23" height="23" x="9" y="26" fill="#898879" rx="2"/><rect width="23" height="23" x="9" y="52" fill="#898879" rx="2"/><rect width="23" height="23" x="9" y="52" fill="#898879" rx="2"/><rect width="23" height="23" x="9" y="78" fill="#898879" rx="2"/><rect width="23" height="23" x="9" y="78" fill="#898879" rx="2"/><rect width="23" height="23" x="9" y="104" fill="#898879" rx="2"/><rect width="23" height="23" x="9" y="104" fill="#898879" rx="2"/><rect width="23" height="23" x="35" y="26" fill="#898879" rx="2"/><rect width="23" height="23" x="35" y="26" fill="#898879" rx="2"/><rect width="23" height="23" x="35" y="52" fill="#898879" rx="2"/><rect width="23" height="23" x="35" y="52" fill="#E5E5E5" rx="2"/><rect width="23" height="23" x="35" y="78" fill="#898879" rx="2"/><rect width="23" height="23" x="35" y="78" fill="#898879" rx="2"/><rect width="23" height="23" x="35" y="104" fill="#898879" rx="2"/><rect width="23" height="23" x="35" y="104" fill="#898879" rx="2"/><rect width="23" height="23" x="61" y="26" fill="#898879" rx="2"/><rect width="23" height="23" x="61" y="26" fill="#898879" rx="2"/><rect width="23" height="23" x="61" y="52" fill="#898879" rx="2"/><rect width="23" height="23" x="61" y="52" fill="#898879" rx="2"/><rect width="23" height="23" x="61" y="78" fill="#898879" rx="2"/><rect width="23" height="23" x="61" y="78" fill="#E5E5E5" rx="2"/><rect width="23" height="23" x="61" y="104" fill="#898879" rx="2"/><rect width="23" height="23" x="61" y="104" fill="#898879" rx="2"/><rect width="23" height="23" x="87" y="26" fill="#898879" rx="2"/><rect width="23" height="23" x="87" y="26" fill="#E5E5E5" rx="2"/><rect width="23" height="23" x="87" y="52" fill="#898879" rx="2"/><rect width="23" height="23" x="87" y="52" fill="#898879" rx="2"/><rect width="23" height="23" x="87" y="78" fill="#898879" rx="2"/><rect width="23" height="23" x="87" y="78" fill="#898879" rx="2"/><rect width="23" height="23" x="87" y="104" fill="#898879" rx="2"/><rect width="23" height="23" x="87" y="104" fill="#898879" rx="2"/><rect width="23" height="23" x="113" y="26" fill="#898879" rx="2"/><rect width="23" height="23" x="113" y="26" fill="#898879" rx="2"/><rect width="23" height="23" x="113" y="52" fill="#898879" rx="2"/><rect width="23" height="23" x="113" y="52" fill="#898879" rx="2"/><rect width="23" height="23" x="113" y="78" fill="#898879" rx="2"/><rect width="23" height="23" x="113" y="78" fill="#898879" rx="2"/><rect width="23" height="23" x="113" y="104" fill="#898879" rx="2"/><rect width="23" height="23" x="113" y="104" fill="#898879" rx="2"/></svg>